<?xml version="1.0" standalone="no"?>
<!DOCTYPE svg PUBLIC "-//W3C//DTD SVG 20010904//EN"
 "http://www.w3.org/TR/2001/REC-SVG-20010904/DTD/svg10.dtd">
<svg version="1.0" xmlns="http://www.w3.org/2000/svg"
 width="1103.000000pt" height="1103.000000pt" viewBox="0 0 1103.000000 1103.000000"
 preserveAspectRatio="xMidYMid meet">
<metadata>
Created by potrace 1.14, written by Peter Selinger 2001-2017
</metadata>
<g transform="translate(0.000000,1103.000000) scale(0.100000,-0.100000)"
fill="#000000" stroke="none">
<path d="M5219 11026 c-2 -2 -51 -6 -109 -10 -423 -26 -922 -126 -1355 -271
-723 -243 -1365 -622 -1964 -1160 -97 -86 -321 -317 -421 -431 -138 -158 -134
-154 -243 -296 -389 -510 -679 -1070 -878 -1697 -36 -111 -101 -351 -113 -413
-2 -13 -9 -43 -15 -68 -33 -145 -76 -423 -96 -625 -4 -33 -9 -78 -11 -100 -9
-74 -12 -699 -4 -812 57 -756 238 -1426 566 -2083 144 -288 257 -476 463 -770
71 -102 260 -337 368 -456 961 -1069 2283 -1719 3708 -1821 143 -10 680 -10
815 0 572 44 1174 185 1668 393 59 25 121 50 137 56 68 25 470 233 595 308
931 561 1648 1333 2125 2289 265 531 453 1142 525 1701 6 47 12 99 15 115 4
36 13 125 24 255 9 93 6 770 -2 820 -3 14 -8 61 -11 105 -73 846 -397 1762
-884 2495 -89 133 -277 389 -335 457 -14 15 -55 64 -93 108 -379 443 -921 896
-1384 1157 -25 14 -74 42 -110 63 -158 91 -451 230 -665 315 -386 155 -963
303 -1309 336 -28 3 -62 7 -76 9 -28 4 -106 12 -250 24 -93 8 -674 14 -681 7z"/>
</g>
</svg>
